<?xml version="1.0" encoding="UTF-8" standalone="no"?>
<!-- Created with Inkscape (http://www.inkscape.org/) -->

<svg
   width="81.567627mm"
   height="36.768299mm"
   viewBox="0 0 81.567627 36.768299"
   version="1.1"
   id="svg5"
   inkscape:version="1.1 (c68e22c387, 2021-05-23)"
   sodipodi:docname="CLIVSECO_white.svg"
   xmlns:inkscape="http://www.inkscape.org/namespaces/inkscape"
   xmlns:sodipodi="http://sodipodi.sourceforge.net/DTD/sodipodi-0.dtd"
   xmlns="http://www.w3.org/2000/svg"
   xmlns:svg="http://www.w3.org/2000/svg">
  <sodipodi:namedview
     id="namedview7"
     pagecolor="#ffffff"
     bordercolor="#666666"
     borderopacity="1.0"
     inkscape:pageshadow="2"
     inkscape:pageopacity="0.0"
     inkscape:pagecheckerboard="0"
     inkscape:document-units="mm"
     showgrid="false"
     inkscape:zoom="1.4823793"
     inkscape:cx="3.7102514"
     inkscape:cy="88.708737"
     inkscape:window-width="1920"
     inkscape:window-height="1017"
     inkscape:window-x="2552"
     inkscape:window-y="-8"
     inkscape:window-maximized="1"
     inkscape:current-layer="layer1"
     fit-margin-top="0"
     fit-margin-left="0"
     fit-margin-right="0"
     fit-margin-bottom="0" />
  <defs
     id="defs2" />
  <g
     inkscape:label="Layer 1"
     inkscape:groupmode="layer"
     id="layer1"
     transform="translate(-14.278909,-59.970902)">
    <path
       id="rect31"
       style="fill:#ffffff;fill-opacity:1;stroke-width:0.242952"
       d="M 14.278909,59.970902 V 96.739201 H 95.846537 V 59.970902 Z m 6.807336,3.238045 c 1.264555,0 2.307918,0.444291 3.130559,1.33222 0.82264,0.887925 1.363256,1.997622 1.621606,3.329511 0.25835,1.319559 0.387573,3.378999 0.387573,6.178433 v 2.848923 H 21.932705 V 71.6813 c 0,-1.516875 -0.04796,-2.46035 -0.143143,-2.83032 -0.08838,-0.382301 -0.288775,-0.573092 -0.601514,-0.573092 -0.353531,0 -0.578162,0.227901 -0.673344,0.684196 -0.09518,0.456295 -0.142627,1.443151 -0.142627,2.960026 v 13.910778 c 0,1.455214 0.04745,2.40496 0.142627,2.848923 0.09518,0.443962 0.30972,0.665593 0.642855,0.665593 0.319538,0 0.527003,-0.221631 0.622184,-0.665593 0.10198,-0.443963 0.152962,-1.486226 0.152962,-3.126423 v -3.755326 h 4.293278 v 1.165301 c 0,3.095411 -0.122666,5.290751 -0.367419,6.585646 -0.237954,1.294892 -0.771497,2.429674 -1.600936,3.403925 -0.82264,0.974255 -1.839261,1.460895 -3.049426,1.460895 -1.257756,0 -2.294563,-0.412938 -3.110404,-1.239203 -0.815842,-0.826264 -1.355942,-1.966798 -1.62109,-3.422012 -0.265149,-1.467546 -0.397909,-3.669157 -0.397909,-6.604249 v -8.749852 c 0,-2.158156 0.04089,-3.773305 0.122473,-4.846217 0.08158,-1.085244 0.322865,-2.127507 0.723987,-3.126423 0.407921,-0.998918 0.968723,-1.781923 1.682585,-2.349211 0.72066,-0.579618 1.546982,-0.869715 2.478401,-0.869715 z m 35.876362,0 c 1.114984,0 2.063457,0.327208 2.845306,0.980819 0.788646,0.653613 1.30856,1.479483 1.56011,2.478402 0.25835,0.986586 0.387575,2.670201 0.387575,5.050337 v 1.183908 h -3.987355 v -2.220019 c 0,-1.035915 -0.05098,-1.695566 -0.152961,-1.979207 -0.101981,-0.283644 -0.272093,-0.425299 -0.510048,-0.425299 -0.25835,0 -0.455203,0.190791 -0.591177,0.573092 -0.129175,0.382302 -0.193786,0.961978 -0.193786,1.738913 0,0.998916 0.0747,1.7516 0.224274,2.257227 0.142774,0.505624 0.547092,1.115621 1.213363,1.830895 1.910429,2.059496 3.113812,3.749384 3.610115,5.068941 0.496306,1.319559 0.744659,3.446949 0.744659,6.382038 0,2.133492 -0.139316,3.705775 -0.418063,4.717026 -0.271946,1.011251 -0.80247,1.862206 -1.591116,2.552817 -0.788649,0.678275 -1.706325,1.016992 -2.753321,1.016992 -1.148977,0 -2.131266,-0.39464 -2.947109,-1.183908 -0.809043,-0.789267 -1.339564,-1.793904 -1.591116,-3.014802 -0.25155,-1.220901 -0.377238,-2.953652 -0.377238,-5.198134 v -1.961121 h 3.987353 v 3.644223 c 0,1.122241 0.05452,1.843569 0.163298,2.16421 0.115578,0.32064 0.315968,0.481107 0.601514,0.481107 0.285544,0 0.496546,-0.203332 0.632518,-0.610298 0.142775,-0.406966 0.213942,-1.011211 0.213942,-1.812811 0,-1.76352 -0.132244,-2.916598 -0.397393,-3.459218 -0.271947,-0.542624 -0.941784,-1.448988 -2.00918,-2.719216 -1.067392,-1.28256 -1.774584,-2.214009 -2.121315,-2.793627 -0.346734,-0.57962 -0.63546,-1.380924 -0.866614,-2.404504 -0.224358,-1.023583 -0.336415,-2.330857 -0.336415,-3.921726 0,-2.29381 0.159504,-3.971155 0.479042,-5.031734 0.326337,-1.060577 0.849786,-1.886966 1.570447,-2.478918 0.720659,-0.604282 1.590889,-0.906405 2.610691,-0.906405 z m 20.059759,0 c 1.264555,0 2.307918,0.444291 3.130558,1.33222 0.822639,0.887925 1.363257,1.997622 1.621607,3.329511 0.25835,1.319559 0.387572,3.378999 0.387572,6.178433 v 2.848923 H 77.868826 V 71.6813 c 0,-1.516875 -0.04796,-2.46035 -0.143145,-2.83032 -0.08838,-0.382301 -0.288774,-0.573092 -0.601514,-0.573092 -0.353531,0 -0.577644,0.227901 -0.672825,0.684196 -0.09518,0.456295 -0.143145,1.443151 -0.143145,2.960026 v 13.910778 c 0,1.455214 0.04796,2.40496 0.143145,2.848923 0.09518,0.443962 0.309203,0.665593 0.642337,0.665593 0.319537,0 0.527002,-0.221631 0.622183,-0.665593 0.101981,-0.443963 0.152964,-1.486226 0.152964,-3.126423 v -3.755326 h 4.293277 v 1.165301 c 0,3.095411 -0.122666,5.290751 -0.367419,6.585646 -0.237955,1.294892 -0.771496,2.429674 -1.600935,3.403925 -0.822643,0.974255 -1.839262,1.460895 -3.049426,1.460895 -1.257758,0 -2.294565,-0.412938 -3.110405,-1.239203 C 73.218075,92.350362 72.677976,91.209828 72.412827,89.754614 72.14768,88.287068 72.01492,86.085457 72.01492,83.150365 v -8.749852 c 0,-2.158156 0.04089,-3.773305 0.122473,-4.846217 0.08158,-1.085244 0.322863,-2.127507 0.723987,-3.126423 0.407919,-0.998918 0.968722,-1.781923 1.682583,-2.349211 0.720662,-0.579618 1.546982,-0.869715 2.478403,-0.869715 z m 11.523331,0 c 0.88383,0 1.67633,0.265528 2.37659,0.795817 0.70707,0.517959 1.27443,1.300964 1.70274,2.349211 0.42832,1.048248 0.68323,2.188782 0.76482,3.422013 0.0816,1.233233 0.12247,3.391463 0.12247,6.474541 v 5.124233 c 0,3.009085 -0.0409,5.14223 -0.12247,6.400128 -0.0748,1.245563 -0.31961,2.386616 -0.73433,3.422529 -0.40792,1.035915 -0.96165,1.831464 -1.66191,2.386419 -0.70027,0.554953 -1.51649,0.831991 -2.44791,0.831991 -0.88383,0 -1.67884,-0.258742 -2.38591,-0.776698 -0.70026,-0.530288 -1.264599,-1.319567 -1.692914,-2.367814 -0.428318,-1.048248 -0.683228,-2.188782 -0.764813,-3.422013 -0.08158,-1.23323 -0.122473,-3.391463 -0.122473,-6.474542 v -5.124233 c 0,-3.009085 0.03735,-5.136475 0.112139,-6.382041 0.08158,-1.257895 0.3264,-2.404702 0.734322,-3.440615 0.414718,-1.035915 0.971989,-1.831464 1.672249,-2.386417 0.70026,-0.554956 1.51598,-0.832509 2.4474,-0.832509 z m -60.779756,0.628902 h 4.293279 v 23.955644 h 2.610691 v 5.993432 h -6.90397 z m 7.944217,0 h 4.29328 v 29.949076 h -4.29328 z m 5.03742,0 h 4.528405 c 0.523499,8.250319 0.897022,15.224709 1.121378,20.922239 0.224356,-5.759191 0.459081,-10.877474 0.703834,-15.354102 l 0.29559,-5.568137 h 4.527889 l -2.182297,29.949076 h -6.516399 z m 22.711275,0 h 7.158736 v 5.99395 H 67.75213 v 5.678723 h 2.682008 v 5.697844 H 67.75213 v 6.585127 h 3.15123 v 5.993432 h -7.444507 z m 25.107514,4.440039 c -0.22436,0 -0.39801,0.159951 -0.52039,0.480591 -0.11557,0.308309 -0.17311,1.233485 -0.17311,2.775024 V 85.51818 c 0,1.738857 0.0374,2.81196 0.11214,3.218926 0.0816,0.406966 0.26532,0.610298 0.55087,0.610298 0.29234,0 0.4791,-0.234172 0.56069,-0.702799 0.0816,-0.46863 0.12247,-1.584595 0.12247,-3.348117 V 71.533503 c 0,-1.393549 -0.0444,-2.281618 -0.13281,-2.66392 -0.0816,-0.394634 -0.25472,-0.591695 -0.51986,-0.591695 z" />
  </g>
</svg>
